<?xml version="1.0" encoding="utf-8"?>
<!-- Generator: Adobe Illustrator 26.0.0, SVG Export Plug-In . SVG Version: 6.00 Build 0)  -->
<svg version="1.1" id="icons" xmlns="http://www.w3.org/2000/svg" xmlns:xlink="http://www.w3.org/1999/xlink" x="0px" y="0px"
	 viewBox="0 0 15 16.3" style="enable-background:new 0 0 15 16.3;" xml:space="preserve">
<style type="text/css">
	.st0{fill:#FFFFFF;}
</style>
<path class="st0" d="M12,4.1c-0.1,0-0.2-0.1-0.3-0.2c-0.3-0.2-0.5-0.4-0.7-0.6c-0.5-0.6-0.7-1.2-0.8-1.6h0c-0.1-0.4,0-0.6,0-0.6H7.8
	v9.2c0,0.1,0,0.2,0,0.4c0,0,0,0,0,0c0,0,0,0,0,0c0,0,0,0,0,0c-0.1,0.7-0.4,1.3-1,1.6c-0.3,0.2-0.6,0.3-1,0.3c-1.1,0-2-0.9-2-2
	s0.9-2,2-2c0.2,0,0.4,0,0.6,0.1l0-2.4C5.2,6.1,4,6.4,3,7.2C2.6,7.6,2.3,8,2,8.5c-0.1,0.2-0.5,0.9-0.5,2c0,0.6,0.2,1.3,0.3,1.6v0
	c0.1,0.2,0.3,0.7,0.6,1.2c0.3,0.4,0.6,0.7,1,1v0l0,0c1.2,0.8,2.4,0.7,2.4,0.7c0.2,0,1,0,1.8-0.4c0.9-0.4,1.5-1.1,1.5-1.1
	c0.3-0.4,0.6-0.8,0.8-1.3c0.2-0.6,0.3-1.2,0.3-1.5V5.7c0,0,0.4,0.3,0.4,0.3s0.6,0.4,1.4,0.6c0.6,0.2,1.5,0.2,1.5,0.2V4.4
	C13.2,4.5,12.6,4.4,12,4.1z"/>
</svg>
